<?xml version="1.0" standalone="no"?>
<!DOCTYPE svg PUBLIC "-//W3C//DTD SVG 20010904//EN"
 "http://www.w3.org/TR/2001/REC-SVG-20010904/DTD/svg10.dtd">
<svg version="1.0" xmlns="http://www.w3.org/2000/svg"
 width="700.000000pt" height="700.000000pt" viewBox="0 0 700.000000 700.000000"
 preserveAspectRatio="xMidYMid meet">
<metadata>
Created by potrace 1.14, written by Peter Selinger 2001-2017
</metadata>
<g transform="translate(0.000000,700.000000) scale(0.100000,-0.100000)"
fill="#000000" stroke="none">
<path d="M1642 6568 c-171 -21 -367 -88 -517 -175 -356 -206 -598 -547 -682
-958 -17 -85 -18 -189 -18 -1935 0 -1739 1 -1850 18 -1934 60 -293 183 -524
391 -732 203 -202 425 -324 706 -386 l105 -23 1855 0 1855 0 102 23 c287 63
507 183 709 386 208 209 331 439 391 732 17 84 18 195 18 1934 0 1739 -1 1850
-18 1934 -60 293 -183 523 -391 732 -200 201 -417 320 -704 386 l-97 22 -1825
2 c-1072 1 -1855 -2 -1898 -8z m2073 -1002 c44 -14 108 -42 143 -63 91 -55
1356 -1038 1396 -1084 36 -42 66 -122 66 -173 0 -54 -29 -134 -63 -172 -17
-20 -118 -111 -225 -201 -132 -113 -197 -162 -205 -155 -7 5 -172 132 -367
283 -418 323 -424 328 -543 384 -143 67 -245 89 -412 90 -277 0 -427 -59 -721
-285 -189 -145 -201 -161 -194 -250 4 -59 68 -110 136 -110 48 0 59 7 251 156
195 151 303 199 483 211 144 9 300 -30 416 -106 33 -20 212 -156 399 -301 187
-144 341 -263 342 -264 5 -4 -664 -564 -718 -603 -107 -74 -265 -123 -399
-123 -127 0 -283 46 -387 115 -28 19 -226 182 -440 362 -213 181 -503 426
-643 544 -140 119 -269 232 -287 252 -87 99 -81 255 15 356 49 52 1248 984
1362 1059 123 81 248 114 410 107 76 -2 127 -11 185 -29z m-1170 -2547 c193
-163 372 -310 398 -328 78 -53 226 -119 323 -143 70 -17 119 -22 229 -23 158
0 250 16 375 68 155 63 174 78 930 717 l46 38 174 -134 c217 -167 263 -213
284 -284 9 -30 16 -68 16 -85 0 -56 -30 -135 -67 -176 -45 -50 -1273 -1089
-1355 -1146 -106 -74 -264 -123 -398 -123 -132 0 -293 49 -394 120 -67 47
-1259 1051 -1334 1124 -88 85 -113 189 -72 298 25 68 61 102 280 271 170 131
176 135 195 118 11 -10 178 -150 370 -312z"/>
</g>
</svg>
